<svg width="375" height="707" viewBox="0 0 375 707" fill="none" xmlns="http://www.w3.org/2000/svg">
<g clip-path="url(#clip0)">
<path d="M676 0H-242V528.545H676V0Z" fill="url(#paint0_linear)"/>
<g opacity="0.59">
<path opacity="0.59" d="M108.045 23.0659C110.827 23.0659 110.827 18.6614 108.045 18.6614C105.264 18.6614 105.264 23.0659 108.045 23.0659Z" fill="#F1F2F2"/>
<path opacity="0.59" d="M291.182 96.7841C294.891 96.7841 294.891 90.9886 291.182 90.9886C287.473 90.9886 287.473 96.7841 291.182 96.7841Z" fill="#F1F2F2"/>
<path opacity="0.59" d="M37.3409 106.868C39.1955 106.868 39.1955 103.97 37.3409 103.97C35.4863 104.086 35.4863 106.868 37.3409 106.868Z" fill="#F1F2F2"/>
<path opacity="0.59" d="M221.636 306.232C223.491 306.232 223.491 303.334 221.636 303.334C219.782 303.45 219.782 306.232 221.636 306.232Z" fill="#F1F2F2"/>
<path opacity="0.59" d="M325.955 226.255C327.809 226.255 327.809 223.357 325.955 223.357C324.1 223.473 324.1 226.255 325.955 226.255Z" fill="#F1F2F2"/>
<path opacity="0.59" d="M258.727 76.3841C261.509 76.3841 261.509 71.9795 258.727 71.9795C255.946 71.9795 255.946 76.3841 258.727 76.3841Z" fill="#F1F2F2"/>
<path opacity="0.59" d="M128.909 194.611C131.691 194.611 131.691 190.207 128.909 190.207C126.127 190.207 126.127 194.611 128.909 194.611Z" fill="#F1F2F2"/>
<path opacity="0.59" d="M28.0682 252.566C30.85 252.566 30.85 248.161 28.0682 248.161C25.2864 248.161 25.2864 252.566 28.0682 252.566Z" fill="#F1F2F2"/>
</g>
<path d="M180.257 541.295C215.913 541.295 244.818 512.39 244.818 476.734C244.818 441.078 215.913 412.173 180.257 412.173C144.601 412.173 115.695 441.078 115.695 476.734C115.695 512.39 144.601 541.295 180.257 541.295Z" fill="url(#paint1_radial)"/>
<path opacity="0.68" d="M-152.75 293.25C-172.107 288.73 -184.509 269.72 -180.8 250.595C-177.091 231.007 -157.618 217.677 -137.682 221.386C-138.841 208.752 -130.264 197.277 -117.977 194.727C-105.807 192.177 -93.5204 199.132 -89.4636 210.955C-90.159 207.477 -93.2886 189.859 -82.0454 172.705C-71.15 155.898 -54.3431 151.493 -50.75 150.682C-48.5477 138.743 -38.9272 129.702 -27.5681 128.659C-14.5863 127.384 -1.95224 136.773 0.713669 150.682C19.6068 143.843 40.4705 149.639 52.4091 164.591C62.4932 177.341 64.5796 194.843 58.2046 210.375C65.9705 197.625 80.8069 190.902 95.2955 193.568C110.248 196.35 122.07 208.52 124.273 223.705C124.968 223.357 140.5 214.895 155.568 223.705C166.232 229.964 172.259 242.366 170.636 255C176.316 247.234 185.936 244.684 192.659 248.045C199.498 251.523 202.395 262.302 200.309 269.836C191.964 299.045 103.409 302.523 103.409 302.523C103.409 302.523 47.3091 305.189 -11.3409 304.841C-66.7454 304.493 -94.4477 301.595 -106.386 300.205C-125.511 298.002 -141.507 295.336 -152.75 293.25Z" fill="url(#paint2_linear)"/>
<path opacity="0.92" d="M475.014 136.309C483.591 134.339 489.155 126.109 487.532 117.764C485.909 109.186 477.216 103.507 468.291 105.13C468.755 99.6818 464.93 94.6977 459.482 93.5386C454.034 92.4954 448.586 95.5091 446.732 100.609C447.08 99.1022 448.47 91.4522 443.486 84.0341C438.618 76.7318 431.084 74.8773 429.577 74.4136C428.65 69.1977 424.245 65.3727 419.261 64.7932C413.466 64.2136 407.786 68.3863 406.627 74.4136C398.166 71.4 388.893 73.95 383.561 80.4409C379.041 86.0045 378.114 93.6545 381.011 100.377C377.534 94.8136 370.927 91.9159 364.436 93.075C357.714 94.2341 352.498 99.5659 351.455 106.173C351.107 106.057 344.268 102.348 337.546 106.173C332.793 108.839 330.127 114.286 330.823 119.734C328.273 116.373 323.984 115.214 320.971 116.72C317.957 118.227 316.566 122.864 317.609 126.225C321.318 138.859 360.843 140.366 360.843 140.366C360.843 140.366 385.88 141.525 412.075 141.409C436.764 141.293 449.166 140.018 454.498 139.439C462.843 138.395 469.914 137.236 475.014 136.309Z" fill="url(#paint3_linear)"/>
<path opacity="0.79" d="M-29.3068 440.339C-38.2318 438.716 -44.0273 431.645 -42.2886 424.575C-40.55 417.389 -31.5091 412.405 -22.2364 413.795C-22.8159 409.159 -18.7591 404.87 -13.0795 403.943C-7.40001 403.016 -1.72047 405.566 0.134079 409.97C-0.21365 408.695 -1.60455 402.204 3.49545 395.829C8.59545 389.686 16.3614 388.064 17.9841 387.716C19.0273 383.311 23.4318 379.95 28.7636 379.602C34.7909 379.139 40.5863 382.616 41.8613 387.716C50.6704 385.166 60.2909 387.368 65.8545 392.816C70.4909 397.452 71.5341 403.943 68.5204 409.623C72.1136 404.87 78.9523 402.436 85.675 403.48C92.6295 404.523 98.0772 408.927 99.1204 414.607C99.4681 414.491 106.655 411.361 113.609 414.607C118.593 416.925 121.375 421.445 120.564 426.082C123.23 423.184 127.634 422.257 130.764 423.532C133.893 424.807 135.284 428.748 134.241 431.53C130.416 442.309 89.3841 443.584 89.3841 443.584C89.3841 443.584 63.3045 444.627 36.1818 444.395C10.45 444.28 -2.41591 443.236 -7.86364 442.657C-16.6727 442.077 -24.0909 441.15 -29.3068 440.339Z" fill="url(#paint4_linear)"/>
<path opacity="0.79" d="M376.375 395.598C367.45 393.975 361.655 386.905 363.393 379.834C365.132 372.648 374.173 367.664 383.445 369.055C382.866 364.418 386.923 360.13 392.602 359.202C398.282 358.275 403.961 360.825 405.816 365.23C405.468 363.955 404.077 357.464 409.177 351.089C414.277 344.945 422.043 343.323 423.666 342.975C424.709 338.57 429.114 335.209 434.445 334.861C440.473 334.398 446.268 337.875 447.543 342.975C456.352 340.425 465.973 342.627 471.536 348.075C476.173 352.711 477.216 359.202 474.202 364.882C477.795 360.13 484.634 357.695 491.357 358.739C498.311 359.782 503.759 364.186 504.802 369.866C505.15 369.75 512.336 366.62 519.291 369.866C524.275 372.184 527.057 376.705 526.245 381.341C528.911 378.443 533.316 377.516 536.445 378.791C539.575 380.066 540.966 384.007 539.923 386.789C536.098 397.568 495.066 398.843 495.066 398.843C495.066 398.843 468.986 399.886 441.864 399.654C416.132 399.539 403.266 398.495 397.818 397.916C389.009 397.336 381.707 396.409 376.375 395.598Z" fill="url(#paint5_linear)"/>
<path opacity="0.79" d="M264.523 422.373C251.309 420.17 242.848 410.55 245.282 401.045C247.832 391.193 261.161 384.586 274.839 386.441C274.027 380.182 279.939 374.386 288.284 373.111C296.63 371.836 304.975 375.314 307.873 381.225C307.409 379.486 305.323 370.677 312.973 362.1C320.391 353.755 331.982 351.552 334.416 351.089C335.923 345.061 342.53 340.657 350.295 340.077C359.22 339.498 367.798 344.134 369.652 351.089C382.634 347.727 396.891 350.509 405.005 358.043C411.843 364.418 413.35 373.227 408.945 380.993C414.277 374.618 424.361 371.257 434.33 372.648C444.645 374.039 452.643 380.066 454.15 387.716C454.614 387.484 465.277 383.311 475.593 387.716C482.895 390.845 486.952 396.989 485.909 403.364C489.85 399.423 496.457 398.148 500.977 399.886C505.73 401.625 507.7 406.957 506.193 410.782C500.514 425.386 440.009 427.125 439.893 427.125C439.893 427.125 401.527 428.516 361.423 428.284C323.52 428.052 304.511 426.661 296.398 425.966C283.184 424.691 272.289 423.416 264.523 422.373Z" fill="url(#paint6_linear)"/>
<path d="M676 439.991C671.827 435.007 667.654 430.139 663.598 425.155C663.714 426.314 664.757 439.295 657.686 448.452C651.311 456.682 643.314 455.291 642.154 455.059C639.72 455.291 625.116 456.566 614.684 441.73C610.627 435.934 608.541 429.559 607.498 425.155L588.373 440.107C571.682 418.316 549.543 393.395 521.609 370.33C502.368 354.566 484.17 342.743 467.943 333.818C462.148 348.539 446.5 382.964 415.552 406.841C386.111 429.559 358.525 430.602 346.47 430.139C342.877 428.864 335.923 425.618 329.78 416.809C326.882 412.752 325.027 408.58 323.868 405.218C314.132 420.17 298.252 441.15 274.955 458.305C247.136 478.936 186.98 489.716 179.561 481.602C169.593 470.475 169.941 453.552 170.057 451.698C160.552 463.289 150.932 474.995 141.427 486.586C127.866 471.402 109.668 453.9 86.6023 438.484C65.7386 424.459 46.3818 415.766 30.6182 410.318C16.9409 424.807 -25.1341 466.766 -75.4386 475.111C-98.2727 478.936 -124.236 487.282 -136.175 466.766C-145.564 450.886 -141.97 426.314 -139.768 415.302C-158.198 428.748 -178.018 445.555 -198.186 466.766C-204.445 473.373 -210.473 480.095 -216.036 486.702C-222.875 484.616 -241.536 471.982 -241.536 471.982L-242 566.1C-242 566.1 367.218 562.855 676 561.232" fill="url(#paint7_linear)"/>
<path d="M-242 454.711C-237.364 450.77 -232.727 446.714 -227.975 442.773C-228.091 443.584 -229.134 452.625 -222.18 459C-215.92 464.679 -208.155 463.752 -207.111 463.636C-204.677 463.868 -190.536 464.679 -180.452 454.364C-176.511 450.307 -174.541 445.902 -173.498 442.773C-167.355 446.25 -161.095 449.727 -154.952 453.204C-138.725 437.904 -117.166 420.518 -90.0432 404.523C-71.3818 393.511 -53.6477 385.282 -37.8841 379.023C-32.2045 389.339 -17.0204 413.332 13.1159 430.023C41.7455 445.902 68.5205 446.598 80.3432 446.25C83.8205 445.323 90.6591 443.12 96.5705 436.977C99.3523 434.079 101.207 431.182 102.366 428.864C111.755 439.295 127.286 453.9 149.889 465.954C176.895 480.327 235.43 487.977 242.616 482.182C252.236 474.416 251.889 462.593 251.889 461.318L279.707 485.659C292.92 475.111 310.655 462.825 333.025 452.045C353.309 442.193 372.086 436.166 387.502 432.341C400.832 442.425 441.748 471.75 490.661 477.545C512.916 480.211 538.068 486.123 549.775 471.75C558.816 460.623 555.339 443.584 553.252 435.818C571.218 445.207 590.459 456.914 610.048 471.75C616.191 476.386 621.986 481.023 627.434 485.659C634.157 484.152 643.082 481.37 652.239 475.343C661.975 468.968 676 463.52 676.116 463.289V541.295L-242 537.818" fill="url(#paint8_linear)"/>
<path d="M-241.42 484.5C-219.166 474.532 -191.232 464.795 -158.545 459.464C-65.2386 444.164 -1.48865 475.691 102.25 500.843C151.28 512.666 218.391 519.157 352.614 532.139C495.182 545.932 676 556.016 676 556.016V600.525C676 600.525 -227.28 640.166 -242 643.875C-241.42 484.5 -242 643.759 -241.42 484.5Z" fill="url(#paint9_linear)"/>
<path d="M-241.42 524.952C-160.4 549.177 -19.8022 587.08 145.716 552.886C163.218 549.293 157.191 549.873 188.602 542.455C341.023 506.407 676 518.925 676 518.925C676 518.925 676 630.777 676 629.966C676 629.155 53.2205 750.396 -240.03 578.27C-241.884 539.789 -240.261 574.561 -241.189 532.023C-241.305 529.936 -241.305 527.502 -241.42 524.952Z" fill="url(#paint10_linear)"/>
<path d="M676 580.357C540.85 596.584 388.43 607.595 221.405 607.711C51.3659 607.827 -103.72 596.816 -240.841 580.357V709.479H676V580.357Z" fill="url(#paint11_linear)"/>
</g>
<defs>
<linearGradient id="paint0_linear" x1="217" y1="0" x2="217" y2="528.545" gradientUnits="userSpaceOnUse">
<stop offset="0.028225" stop-color="#202B48"/>
<stop offset="0.3051" stop-color="#5B72A6"/>
<stop offset="0.5308" stop-color="#977AA6"/>
<stop offset="0.7102" stop-color="#D19EAF"/>
<stop offset="0.9949" stop-color="#F4F3B4"/>
</linearGradient>
<radialGradient id="paint1_radial" cx="0" cy="0" r="1" gradientUnits="userSpaceOnUse" gradientTransform="translate(180.315 476.723) scale(64.5706)">
<stop offset="0.010256" stop-color="#F4F3B0"/>
<stop offset="1" stop-color="#F9ED32"/>
</radialGradient>
<linearGradient id="paint2_linear" x1="9.75458" y1="128.543" x2="9.75458" y2="304.876" gradientUnits="userSpaceOnUse">
<stop stop-color="#BA9BC9"/>
<stop offset="0.9949" stop-color="#F4F3B4"/>
</linearGradient>
<linearGradient id="paint3_linear" x1="402.461" y1="64.7978" x2="402.461" y2="141.409" gradientUnits="userSpaceOnUse">
<stop stop-color="#BA9BC9"/>
<stop offset="0.9949" stop-color="#F4F3B4"/>
</linearGradient>
<linearGradient id="paint4_linear" x1="45.9993" y1="379.683" x2="45.9993" y2="444.627" gradientUnits="userSpaceOnUse">
<stop stop-color="#BA9BC9"/>
<stop offset="0.9949" stop-color="#F4F3B4"/>
</linearGradient>
<linearGradient id="paint5_linear" x1="451.751" y1="334.943" x2="451.751" y2="399.886" gradientUnits="userSpaceOnUse">
<stop stop-color="#BA9BC9"/>
<stop offset="0.9949" stop-color="#F4F3B4"/>
</linearGradient>
<linearGradient id="paint6_linear" x1="375.726" y1="339.985" x2="375.726" y2="428.157" gradientUnits="userSpaceOnUse">
<stop stop-color="#BA9BC9"/>
<stop offset="0.9949" stop-color="#F4F3B4"/>
</linearGradient>
<linearGradient id="paint7_linear" x1="217" y1="333.818" x2="217" y2="566.065" gradientUnits="userSpaceOnUse">
<stop offset="0.010236" stop-color="#00A79D"/>
<stop offset="1" stop-color="#1B75BC"/>
</linearGradient>
<linearGradient id="paint8_linear" x1="217" y1="379.023" x2="217" y2="541.284" gradientUnits="userSpaceOnUse">
<stop stop-color="#00A9BD"/>
<stop offset="1" stop-color="#006582"/>
</linearGradient>
<linearGradient id="paint9_linear" x1="217" y1="455.36" x2="217" y2="643.736" gradientUnits="userSpaceOnUse">
<stop stop-color="#509AB9"/>
<stop offset="1" stop-color="#004F68"/>
</linearGradient>
<linearGradient id="paint10_linear" x1="217.301" y1="516.815" x2="217.301" y2="670.662" gradientUnits="userSpaceOnUse">
<stop stop-color="#56A4C4"/>
<stop offset="1" stop-color="#003151"/>
</linearGradient>
<linearGradient id="paint11_linear" x1="217.58" y1="580.357" x2="217.58" y2="709.421" gradientUnits="userSpaceOnUse">
<stop stop-color="#3BA9DC"/>
<stop offset="1" stop-color="#003455"/>
</linearGradient>
<clipPath id="clip0">
<rect width="918" height="709.364" fill="white" transform="translate(-242)"/>
</clipPath>
</defs>
</svg>
