<svg width="375" height="707" viewBox="0 0 375 707" fill="none" xmlns="http://www.w3.org/2000/svg">
<g clip-path="url(#clip0)">
<path d="M565.529 0H-440V578.941H565.529V0Z" fill="url(#paint0_linear)"/>
<path d="M316.305 305.975C355.361 305.975 387.022 274.314 387.022 235.258C387.022 196.202 355.361 164.541 316.305 164.541C277.249 164.541 245.588 196.202 245.588 235.258C245.588 274.314 277.249 305.975 316.305 305.975Z" fill="url(#paint1_radial)"/>
<path opacity="0.68" d="M-342.24 321.211C-363.443 316.259 -377.027 295.438 -372.965 274.489C-368.902 253.033 -347.573 238.432 -325.735 242.495C-327.005 228.656 -317.61 216.087 -304.152 213.294C-290.821 210.501 -277.363 218.119 -272.92 231.069C-273.681 227.26 -277.109 207.962 -264.794 189.172C-252.86 170.762 -234.45 165.938 -230.515 165.049C-228.102 151.972 -217.565 142.069 -205.123 140.926C-190.903 139.53 -177.064 149.814 -174.144 165.049C-153.449 157.558 -130.597 163.906 -117.52 180.284C-106.474 194.25 -104.189 213.421 -111.172 230.434C-102.665 216.468 -86.4142 209.104 -70.5441 212.025C-54.1661 215.072 -41.2161 228.402 -38.8039 245.034C-38.0421 244.653 -21.0294 235.385 -4.52444 245.034C7.15594 251.89 13.7579 265.475 11.9804 279.314C18.2015 270.807 28.7393 268.014 36.103 271.696C43.5937 275.505 46.7677 287.312 44.4824 295.565C35.3412 327.559 -61.6568 331.368 -61.6568 331.368C-61.6568 331.368 -123.106 334.288 -187.348 333.907C-248.035 333.526 -278.379 330.352 -291.456 328.828C-312.404 326.416 -329.925 323.496 -342.24 321.211Z" fill="url(#paint2_linear)"/>
<path opacity="0.82" d="M286.47 128.103C272.631 125.691 263.871 115.153 266.41 104.743C269.076 93.951 282.915 86.7142 297.261 88.7456C296.5 81.8897 302.594 75.5417 311.354 74.1451C319.987 72.7485 328.875 76.5573 331.795 83.0323C331.287 81.1279 329.128 71.4789 337 62.0838C344.745 52.9426 356.806 50.5304 359.345 50.0225C360.869 43.4206 367.851 38.5961 375.85 37.9613C385.118 37.3265 394.132 42.4049 396.037 50.0225C409.495 46.3407 424.476 49.3877 432.982 57.6402C440.219 64.623 441.743 74.272 437.172 82.6515C442.631 75.6686 453.296 71.9868 463.707 73.5103C474.372 75.0338 482.751 81.6358 484.401 90.0152C484.909 89.7613 495.955 85.1907 506.747 90.0152C514.364 93.4431 518.681 100.172 517.538 107.155C521.601 102.838 528.457 101.442 533.281 103.346C538.233 105.25 540.264 111.091 538.741 115.28C532.774 131.277 469.547 133.182 469.547 133.182C469.547 133.182 429.427 134.705 387.53 134.451C347.919 134.198 328.113 132.674 319.606 131.912C305.895 130.77 294.468 129.246 286.47 128.103Z" fill="url(#paint3_linear)"/>
<path opacity="0.92" d="M345.379 149.306C354.774 147.148 360.869 138.133 359.091 128.992C357.314 119.597 347.792 113.376 338.016 115.153C338.524 109.186 334.334 103.727 328.367 102.457C322.4 101.315 316.432 104.616 314.401 110.202C314.782 108.551 316.305 100.172 310.846 92.0466C305.514 84.048 297.261 82.0167 295.611 81.5088C294.595 75.7956 289.771 71.6059 284.311 70.9711C277.963 70.3363 271.742 74.9069 270.473 81.5088C261.204 78.2078 251.048 81.001 245.207 88.1108C240.256 94.2049 239.24 102.584 242.414 109.948C238.605 103.854 231.369 100.68 224.259 101.949C216.895 103.219 211.182 109.059 210.039 116.296C209.658 116.169 202.168 112.106 194.804 116.296C189.599 119.216 186.679 125.183 187.44 131.15C184.647 127.469 179.95 126.199 176.649 127.849C173.348 129.5 171.824 134.578 172.967 138.26C177.029 152.099 220.323 153.749 220.323 153.749C220.323 153.749 247.747 155.019 276.44 154.892C303.482 154.765 317.067 153.369 322.907 152.734C332.049 151.591 339.793 150.322 345.379 149.306Z" fill="url(#paint4_linear)"/>
<path opacity="0.79" d="M237.336 433.317C227.56 431.54 221.212 423.795 223.116 416.051C225.021 408.179 234.924 402.72 245.08 404.243C244.446 399.165 248.889 394.467 255.11 393.451C261.331 392.436 267.552 395.229 269.584 400.053C269.203 398.657 267.679 391.547 273.266 384.564C278.852 377.835 287.358 376.058 289.136 375.677C290.278 370.852 295.103 367.171 300.943 366.79C307.545 366.282 313.893 370.091 315.29 375.677C324.939 372.884 335.476 375.296 341.571 381.263C346.649 386.342 347.792 393.451 344.491 399.673C348.427 394.467 355.917 391.801 363.281 392.944C370.899 394.086 376.866 398.911 378.008 405.132C378.389 405.005 386.261 401.577 393.878 405.132C399.338 407.671 402.385 412.623 401.496 417.701C404.416 414.527 409.241 413.511 412.669 414.908C416.097 416.304 417.62 420.621 416.477 423.668C412.288 435.476 367.344 436.872 367.344 436.872C367.344 436.872 338.777 438.015 309.069 437.761C280.883 437.634 266.791 436.491 260.824 435.856C251.175 435.222 243.176 434.079 237.336 433.317Z" fill="url(#paint5_linear)"/>
<path opacity="0.79" d="M114.819 462.518C100.345 460.106 91.077 449.568 93.7432 439.157C96.5363 428.366 111.137 421.129 126.118 423.16C125.229 416.304 131.704 409.956 140.846 408.56C149.987 407.163 159.128 410.972 162.302 417.447C161.794 415.543 159.509 405.894 167.888 396.498C176.014 387.357 188.71 384.945 191.376 384.437C193.026 377.835 200.263 373.011 208.77 372.376C218.546 371.741 227.941 376.82 229.972 384.437C244.192 380.755 259.808 383.802 268.695 392.055C276.186 399.038 277.836 408.687 273.012 417.193C278.852 410.21 289.898 406.528 300.816 408.052C312.116 409.575 320.876 416.177 322.526 424.557C323.034 424.303 334.715 419.732 346.014 424.557C354.013 427.985 358.456 434.714 357.314 441.696C361.63 437.38 368.867 435.983 373.819 437.888C379.024 439.792 381.182 445.632 379.532 449.822C373.311 465.819 307.037 467.723 306.91 467.723C306.91 467.723 264.886 469.247 220.958 468.993C179.442 468.739 158.62 467.216 149.733 466.454C135.259 465.184 123.325 463.661 114.819 462.518Z" fill="url(#paint6_linear)"/>
<path d="M565.529 481.943C560.959 476.484 556.388 471.151 551.945 465.692C552.072 466.962 553.214 481.181 545.47 491.211C538.487 500.226 529.726 498.702 528.457 498.448C525.791 498.702 509.794 500.099 498.367 483.848C493.923 477.5 491.638 470.517 490.496 465.692L469.547 482.07C451.265 458.201 427.015 430.905 396.418 405.64C375.342 388.373 355.409 375.423 337.635 365.647C331.287 381.771 314.147 419.478 280.248 445.632C248 470.517 217.784 471.659 204.58 471.151C200.644 469.755 193.026 466.2 186.297 456.551C183.123 452.107 181.092 447.537 179.823 443.855C169.158 460.233 151.764 483.213 126.245 502.003C95.7745 524.602 29.8819 536.409 21.7564 527.522C10.8377 515.334 11.2186 496.798 11.3456 494.766C0.934784 507.462 -9.60297 520.285 -20.0138 532.981C-34.8682 516.35 -54.801 497.178 -80.0662 480.293C-102.919 464.93 -124.122 455.408 -141.388 449.441C-156.37 465.311 -202.456 511.271 -257.557 520.412C-282.569 524.602 -311.008 533.743 -324.085 511.271C-334.369 493.878 -330.433 466.962 -328.021 454.9C-348.207 469.628 -369.918 488.037 -392.009 511.271C-398.865 518.508 -405.467 525.872 -411.561 533.108C-419.051 530.823 -439.492 516.984 -439.492 516.984L-440 619.95C-440 619.95 227.306 616.395 565.529 614.617" fill="url(#paint7_linear)"/>
<path d="M-440 498.067C-434.922 493.75 -429.843 489.307 -424.638 484.99C-424.765 485.879 -425.907 495.782 -418.29 502.765C-411.434 508.986 -402.927 507.97 -401.785 507.843C-399.119 508.097 -383.629 508.986 -372.584 497.686C-368.267 493.243 -366.109 488.418 -364.966 484.99C-358.237 488.799 -351.381 492.608 -344.652 496.417C-326.878 479.658 -303.263 460.614 -273.554 443.093C-253.114 431.032 -233.689 422.018 -216.422 415.162C-210.201 426.461 -193.569 452.742 -160.559 471.024C-129.2 488.418 -99.8721 489.18 -86.9221 488.799C-83.1133 487.783 -75.6226 485.371 -69.1476 478.642C-66.1005 475.468 -64.0691 472.294 -62.7995 469.755C-52.5157 481.181 -35.503 497.178 -10.7456 510.382C18.8363 526.125 82.9515 534.505 90.823 528.157C101.361 519.65 100.98 506.7 100.98 505.304L131.451 531.966C145.924 520.412 165.349 506.954 189.852 495.147C212.071 484.355 232.638 477.753 249.524 473.564C264.124 484.609 308.942 516.73 362.519 523.078C386.896 525.998 414.446 532.473 427.269 516.73C437.172 504.542 433.363 485.879 431.078 477.372C450.757 487.656 471.832 500.479 493.289 516.73C500.018 521.809 506.366 526.887 512.333 531.966C519.696 530.315 529.472 527.268 539.502 520.666C550.167 513.683 565.529 507.716 565.656 507.462V592.907L-440 589.098" fill="url(#paint8_linear)"/>
<path d="M-439.365 530.569C-414.989 519.65 -384.391 508.986 -348.588 503.145C-246.385 486.387 -176.556 520.92 -62.9265 548.47C-9.22208 561.42 64.2882 568.53 211.309 582.75C367.471 597.858 565.529 608.904 565.529 608.904V657.657C565.529 657.657 -423.876 701.077 -440 705.14L-439.365 530.569Z" fill="url(#paint9_linear)"/>
<path d="M-439.365 575.005C-350.62 601.54 -196.616 643.056 -15.3162 605.603C3.85492 601.667 -2.74704 602.302 31.6593 594.177C198.613 554.565 565.529 568.404 565.529 568.404C565.529 568.404 565.529 690.921 565.529 690.032C565.529 689.143 -116.631 821.944 -437.842 633.407C-439.873 591.256 -438.096 629.345 -439.111 582.75C-439.238 580.338 -439.238 577.799 -439.365 575.005Z" fill="url(#paint10_linear)"/>
<path d="M565.529 635.693C417.493 653.467 250.54 665.528 67.5892 665.655C-118.662 665.782 -288.536 653.721 -438.73 635.693V777.127H565.529V635.693Z" fill="url(#paint11_linear)"/>
</g>
<defs>
<linearGradient id="paint0_linear" x1="62.7647" y1="-0.0346768" x2="62.7647" y2="578.903" gradientUnits="userSpaceOnUse">
<stop stop-color="#0088BC"/>
<stop offset="0.9949" stop-color="#D5EEF1"/>
</linearGradient>
<radialGradient id="paint1_radial" cx="0" cy="0" r="1" gradientUnits="userSpaceOnUse" gradientTransform="translate(316.318 235.246) scale(70.7273)">
<stop offset="0.010256" stop-color="#F4F3B0"/>
<stop offset="1" stop-color="#F9ED32"/>
</radialGradient>
<linearGradient id="paint2_linear" x1="-164.241" y1="140.774" x2="-164.241" y2="333.907" gradientUnits="userSpaceOnUse">
<stop stop-color="white"/>
<stop offset="0.9949" stop-color="#DBEFF9"/>
</linearGradient>
<linearGradient id="paint3_linear" x1="402.486" y1="37.9321" x2="402.486" y2="134.502" gradientUnits="userSpaceOnUse">
<stop stop-color="white"/>
<stop offset="0.9949" stop-color="#DBEFF9"/>
</linearGradient>
<linearGradient id="paint4_linear" x1="265.909" y1="70.9419" x2="265.909" y2="154.854" gradientUnits="userSpaceOnUse">
<stop stop-color="white"/>
<stop offset="0.9949" stop-color="#DBEFF9"/>
</linearGradient>
<linearGradient id="paint5_linear" x1="319.898" y1="366.841" x2="319.898" y2="437.977" gradientUnits="userSpaceOnUse">
<stop stop-color="white"/>
<stop offset="0.9949" stop-color="#DBEFF9"/>
</linearGradient>
<linearGradient id="paint6_linear" x1="236.625" y1="372.376" x2="236.625" y2="468.942" gradientUnits="userSpaceOnUse">
<stop stop-color="white"/>
<stop offset="0.9949" stop-color="#DBEFF9"/>
</linearGradient>
<linearGradient id="paint7_linear" x1="62.7647" y1="365.609" x2="62.7647" y2="620.013" gradientUnits="userSpaceOnUse">
<stop stop-color="#ADD1EF"/>
<stop offset="0.9949" stop-color="#4DB3E6"/>
</linearGradient>
<linearGradient id="paint8_linear" x1="62.7647" y1="415.124" x2="62.7647" y2="592.856" gradientUnits="userSpaceOnUse">
<stop stop-color="#BACFEB"/>
<stop offset="1" stop-color="#5783C3"/>
</linearGradient>
<linearGradient id="paint9_linear" x1="62.7647" y1="498.74" x2="62.7647" y2="705.077" gradientUnits="userSpaceOnUse">
<stop stop-color="#88C03F"/>
<stop offset="0.9667" stop-color="#5C892A"/>
</linearGradient>
<linearGradient id="paint10_linear" x1="63.0948" y1="566.067" x2="63.0948" y2="734.57" gradientUnits="userSpaceOnUse">
<stop stop-color="#88C03F"/>
<stop offset="0.9974" stop-color="#48701F"/>
</linearGradient>
<linearGradient id="paint11_linear" x1="63.3996" y1="635.667" x2="63.3996" y2="777.038" gradientUnits="userSpaceOnUse">
<stop stop-color="#8DC63F"/>
<stop offset="0.9693" stop-color="#61823E"/>
</linearGradient>
<clipPath id="clip0">
<rect width="1005.53" height="777" fill="white" transform="translate(-440)"/>
</clipPath>
</defs>
</svg>
