<svg width="375" height="707" viewBox="0 0 375 707" fill="none" xmlns="http://www.w3.org/2000/svg">
<g clip-path="url(#clip0)">
<path d="M940.824 0H0V541.686H940.824V0Z" fill="url(#paint0_linear)"/>
<g opacity="0.59">
<path opacity="0.59" d="M235.206 81.0154C237.107 81.0154 237.107 78.0456 235.206 78.0456C233.305 78.1644 233.305 81.0154 235.206 81.0154Z" fill="#F1F2F2"/>
<path opacity="0.59" d="M317.172 130.908C319.072 130.908 319.072 127.938 317.172 127.938C315.271 128.057 315.271 130.908 317.172 130.908Z" fill="#F1F2F2"/>
<path opacity="0.59" d="M76.0261 354.234C77.9268 354.234 77.9268 351.265 76.0261 351.265C74.1255 351.383 74.1255 354.234 76.0261 354.234Z" fill="#F1F2F2"/>
<path opacity="0.59" d="M51.0801 189.115C52.9807 189.115 52.9807 186.145 51.0801 186.145C49.1794 186.264 49.1794 189.115 51.0801 189.115Z" fill="#F1F2F2"/>
<path opacity="0.59" d="M156.804 97.6461C158.705 97.6461 158.705 94.6763 156.804 94.6763C154.903 94.7951 154.903 97.6461 156.804 97.6461Z" fill="#F1F2F2"/>
<path opacity="0.59" d="M91.469 67.592C94.32 67.592 94.32 63.0779 91.469 63.0779C88.618 63.0779 88.618 67.592 91.469 67.592Z" fill="#F1F2F2"/>
<path opacity="0.59" d="M122.355 142.43C125.206 142.43 125.206 137.916 122.355 137.916C119.504 137.916 119.504 142.43 122.355 142.43Z" fill="#F1F2F2"/>
<path opacity="0.59" d="M194.817 384.764C197.668 384.764 197.668 380.25 194.817 380.25C191.966 380.25 191.966 384.764 194.817 384.764Z" fill="#F1F2F2"/>
<path opacity="0.59" d="M307.668 280.228C310.519 280.228 310.519 275.714 307.668 275.714C304.817 275.714 304.817 280.228 307.668 280.228Z" fill="#F1F2F2"/>
</g>
<path opacity="0.68" d="M91.469 300.541C71.6309 295.908 58.9203 276.426 62.7216 256.826C66.5229 236.75 86.4797 223.089 106.912 226.89C105.724 213.942 114.514 202.182 127.106 199.569C139.579 196.955 152.171 204.083 156.329 216.199C155.616 212.636 152.409 194.579 163.931 176.998C175.098 159.774 192.322 155.26 196.005 154.428C198.262 142.193 208.122 132.927 219.763 131.858C233.068 130.551 246.016 140.173 248.748 154.428C268.111 147.419 289.493 153.359 301.729 168.683C312.064 181.75 314.202 199.687 307.668 215.605C315.627 202.538 330.833 195.648 345.681 198.381C361.005 201.232 373.122 213.705 375.379 229.266C376.092 228.91 392.01 220.238 407.453 229.266C418.381 235.681 424.559 248.392 422.895 261.34C428.716 253.381 438.576 250.767 445.466 254.212C452.474 257.776 455.444 268.824 453.306 276.545C444.753 306.48 353.997 310.044 353.997 310.044C353.997 310.044 296.502 312.776 236.394 312.42C179.612 312.064 151.221 309.094 138.985 307.668C119.385 305.411 102.992 302.679 91.469 300.541Z" fill="url(#paint1_linear)"/>
<path opacity="0.79" d="M217.981 451.286C208.834 449.623 202.895 442.377 204.677 435.131C206.459 427.766 215.724 422.658 225.227 424.083C224.634 419.332 228.791 414.936 234.612 413.986C240.433 413.036 246.253 415.649 248.154 420.163C247.798 418.857 246.372 412.204 251.599 405.671C256.826 399.375 264.785 397.712 266.448 397.355C267.517 392.841 272.031 389.396 277.495 389.04C283.673 388.565 289.612 392.129 290.919 397.355C299.947 394.742 309.807 396.999 315.509 402.582C320.26 407.334 321.329 413.986 318.241 419.807C321.923 414.936 328.932 412.442 335.822 413.511C342.949 414.58 348.532 419.094 349.601 424.915C349.958 424.796 357.323 421.589 364.45 424.915C369.558 427.291 372.409 431.924 371.578 436.675C374.31 433.705 378.824 432.755 382.031 434.062C385.239 435.368 386.664 439.407 385.595 442.258C381.675 453.306 339.623 454.613 339.623 454.613C339.623 454.613 312.895 455.682 285.098 455.444C258.727 455.325 245.541 454.256 239.958 453.662C230.929 453.068 223.327 451.999 217.981 451.286Z" fill="url(#paint2_linear)"/>
<path opacity="0.79" d="M14.2549 418.381C5.108 416.718 -0.83154 409.472 0.950323 402.226C2.73219 394.861 11.9979 389.753 21.5011 391.178C20.9072 386.427 25.0649 382.031 30.8856 381.081C36.7064 380.131 42.5271 382.744 44.4278 387.258C44.0714 385.951 42.6459 379.299 47.8727 372.766C53.0995 366.47 61.0585 364.807 62.7216 364.45C63.7907 359.936 68.3047 356.491 73.7691 356.135C79.9462 355.66 85.8858 359.224 87.1925 364.45C96.2206 361.837 106.08 364.094 111.782 369.677C116.534 374.429 117.603 381.081 114.514 386.902C118.197 382.031 125.206 379.537 132.095 380.606C139.223 381.675 144.806 386.189 145.875 392.01C146.232 391.891 153.597 388.684 160.724 392.01C165.832 394.386 168.683 399.018 167.851 403.77C170.584 400.8 175.098 399.85 178.305 401.157C181.512 402.463 182.938 406.502 181.869 409.353C177.949 420.401 135.897 421.707 135.897 421.707C135.897 421.707 109.169 422.777 81.3717 422.539C55.0002 422.42 41.8144 421.351 36.2312 420.757C27.2031 420.163 19.6005 419.213 14.2549 418.381Z" fill="url(#paint3_linear)"/>
<path d="M940.824 450.93C936.547 445.822 932.271 440.833 928.113 435.725C928.232 436.913 929.301 450.217 922.055 459.602C915.521 468.036 907.325 466.61 906.137 466.373C903.642 466.61 888.674 467.917 877.983 452.712C873.826 446.772 871.687 440.239 870.618 435.725L851.018 451.049C833.912 428.716 811.223 403.176 782.594 379.537C762.875 363.381 744.225 351.265 727.594 342.118C721.654 357.204 705.618 392.485 673.901 416.956C643.728 440.239 615.455 441.308 603.101 440.833C599.419 439.526 592.291 436.2 585.995 427.172C583.026 423.014 581.125 418.738 579.937 415.293C569.959 430.617 553.684 452.118 529.807 469.699C501.297 490.844 439.645 501.891 432.042 493.576C421.826 482.172 422.183 464.829 422.301 462.928C412.561 474.807 402.701 486.805 392.96 498.684C379.062 483.122 360.411 465.185 336.772 449.386C315.39 435.012 295.552 426.103 279.396 420.52C265.379 435.368 222.258 478.371 170.702 486.924C147.301 490.844 120.692 499.397 108.456 478.371C98.834 462.096 102.517 436.913 104.774 425.628C85.8858 439.407 65.5725 456.632 44.9029 478.371C38.4882 485.142 32.3111 492.032 26.6091 498.803C19.6005 496.665 0.475163 483.716 0.475163 483.716L0 580.056C0 580.056 624.365 576.73 940.824 575.067" fill="url(#paint4_linear)"/>
<path d="M0 466.016C4.75163 461.978 9.50327 457.82 14.3737 453.781C14.2549 454.613 13.1858 463.878 20.3132 470.412C26.7279 476.233 34.6869 475.282 35.756 475.163C38.2507 475.401 52.7431 476.233 63.0779 465.66C67.1168 461.502 69.1363 456.988 70.2054 453.781C76.5013 457.345 82.916 460.908 89.2119 464.472C105.843 448.792 127.938 430.973 155.735 414.58C174.86 403.295 193.035 394.861 209.191 388.446C215.011 399.018 230.573 423.608 261.459 440.714C290.8 456.988 318.241 457.701 330.357 457.345C333.921 456.394 340.93 454.137 346.988 447.841C349.839 444.872 351.74 441.902 352.928 439.526C362.55 450.217 378.468 465.185 401.632 477.539C429.31 492.269 489.3 500.109 496.665 494.17C506.524 486.211 506.168 474.094 506.168 472.788L534.678 497.734C548.22 486.924 566.395 474.332 589.321 463.284C610.11 453.187 629.354 447.01 645.153 443.09C658.814 453.425 700.747 483.479 750.877 489.418C773.685 492.15 799.462 498.209 811.46 483.479C820.726 472.075 817.162 454.613 815.024 446.654C833.437 456.276 853.156 468.274 873.232 483.479C879.527 488.23 885.467 492.982 891.05 497.734C897.94 496.189 907.087 493.338 916.471 487.161C926.45 480.628 940.824 475.045 940.942 474.807V554.753L0 551.19" fill="url(#paint5_linear)"/>
<path d="M0.593954 496.427C23.4018 486.211 52.0304 476.232 85.5294 470.768C181.156 455.088 246.491 487.399 352.809 513.176C403.057 525.293 471.837 531.945 609.397 545.25C755.51 559.386 940.824 569.721 940.824 569.721V615.337C940.824 615.337 15.0864 655.963 0 659.764L0.593954 496.427Z" fill="url(#paint6_linear)"/>
<path d="M0.593964 538.004C83.6288 562.831 227.722 601.676 397.355 566.632C415.293 562.95 409.116 563.544 441.308 555.941C597.518 518.878 940.824 531.827 940.824 531.827C940.824 531.827 940.824 646.46 940.824 645.628C940.824 644.797 302.56 769.052 2.01945 592.648C0.1188 553.209 1.78187 588.846 0.831545 545.25C0.712754 542.993 0.712754 540.617 0.593964 538.004Z" fill="url(#paint7_linear)"/>
<path d="M940.824 594.786C802.313 611.417 646.103 622.702 474.926 622.82C300.66 622.939 141.717 611.654 1.1879 594.786V727.119H940.824V594.786Z" fill="url(#paint8_linear)"/>
</g>
<defs>
<linearGradient id="paint0_linear" x1="470.412" y1="-0.0324453" x2="470.412" y2="541.651" gradientUnits="userSpaceOnUse">
<stop offset="0.00623" stop-color="#53093B"/>
<stop offset="0.3144" stop-color="#D41E44"/>
<stop offset="0.8881" stop-color="#FAA61A"/>
<stop offset="0.9927" stop-color="#FFD800"/>
</linearGradient>
<linearGradient id="paint1_linear" x1="258.014" y1="131.715" x2="258.014" y2="312.42" gradientUnits="userSpaceOnUse">
<stop stop-color="#FFF45F"/>
<stop offset="0.9949" stop-color="#EA9A97"/>
</linearGradient>
<linearGradient id="paint2_linear" x1="295.16" y1="389.088" x2="295.16" y2="455.646" gradientUnits="userSpaceOnUse">
<stop stop-color="#FFF45F"/>
<stop offset="0.9949" stop-color="#EA9A97"/>
</linearGradient>
<linearGradient id="paint3_linear" x1="91.469" y1="356.254" x2="91.469" y2="422.812" gradientUnits="userSpaceOnUse">
<stop stop-color="#FFF45F"/>
<stop offset="0.9949" stop-color="#EA9A97"/>
</linearGradient>
<linearGradient id="paint4_linear" x1="470.364" y1="342.082" x2="470.364" y2="580.115" gradientUnits="userSpaceOnUse">
<stop offset="0.0051082" stop-color="#F5887B"/>
<stop offset="1" stop-color="#484A9F"/>
</linearGradient>
<linearGradient id="paint5_linear" x1="470.412" y1="388.41" x2="470.412" y2="554.706" gradientUnits="userSpaceOnUse">
<stop stop-color="#A65F67"/>
<stop offset="1" stop-color="#4A0E37"/>
</linearGradient>
<linearGradient id="paint6_linear" x1="470.412" y1="466.646" x2="470.412" y2="659.705" gradientUnits="userSpaceOnUse">
<stop stop-color="#76234F"/>
<stop offset="0.07601" stop-color="#691B45"/>
<stop offset="0.2073" stop-color="#520933"/>
<stop offset="0.3028" stop-color="#400025"/>
<stop offset="0.3518" stop-color="#38001D"/>
<stop offset="0.3902" stop-color="#33001D"/>
<stop offset="0.4774" stop-color="#29001E"/>
<stop offset="0.5665" stop-color="#20001F"/>
<stop offset="0.6572" stop-color="#190020"/>
<stop offset="0.7502" stop-color="#150020"/>
<stop offset="0.8493" stop-color="#130020"/>
</linearGradient>
<linearGradient id="paint7_linear" x1="470.721" y1="529.641" x2="470.721" y2="687.3" gradientUnits="userSpaceOnUse">
<stop stop-color="#76234F"/>
<stop offset="0.07601" stop-color="#691B45"/>
<stop offset="0.2073" stop-color="#520933"/>
<stop offset="0.3028" stop-color="#400025"/>
<stop offset="0.3518" stop-color="#38001D"/>
<stop offset="0.3902" stop-color="#33001D"/>
<stop offset="0.4774" stop-color="#29001E"/>
<stop offset="0.5665" stop-color="#20001F"/>
<stop offset="0.6572" stop-color="#190020"/>
<stop offset="0.7502" stop-color="#150020"/>
<stop offset="0.8493" stop-color="#130020"/>
</linearGradient>
<linearGradient id="paint8_linear" x1="471.006" y1="594.762" x2="471.006" y2="727.036" gradientUnits="userSpaceOnUse">
<stop stop-color="#76234F"/>
<stop offset="0.07601" stop-color="#691B45"/>
<stop offset="0.2073" stop-color="#520933"/>
<stop offset="0.3028" stop-color="#400025"/>
<stop offset="0.3518" stop-color="#38001D"/>
<stop offset="0.3902" stop-color="#33001D"/>
<stop offset="0.4774" stop-color="#29001E"/>
<stop offset="0.5665" stop-color="#20001F"/>
<stop offset="0.6572" stop-color="#190020"/>
<stop offset="0.7502" stop-color="#150020"/>
<stop offset="0.8493" stop-color="#130020"/>
</linearGradient>
<clipPath id="clip0">
<rect width="940.824" height="727" fill="white"/>
</clipPath>
</defs>
</svg>
