<svg width="375" height="707" viewBox="0 0 375 707" fill="none" xmlns="http://www.w3.org/2000/svg">
<g clip-path="url(#clip0)">
<path d="M940.824 0H0V541.686H940.824V0Z" fill="url(#paint0_linear)"/>
<g opacity="0.59">
<path opacity="0.59" d="M235.206 81.0154C237.107 81.0154 237.107 78.0456 235.206 78.0456C233.305 78.1644 233.305 81.0154 235.206 81.0154Z" fill="#F1F2F2"/>
<path opacity="0.59" d="M317.172 130.908C319.072 130.908 319.072 127.938 317.172 127.938C315.271 128.057 315.271 130.908 317.172 130.908Z" fill="#F1F2F2"/>
<path opacity="0.59" d="M76.0261 354.234C77.9268 354.234 77.9268 351.265 76.0261 351.265C74.1255 351.383 74.1255 354.234 76.0261 354.234Z" fill="#F1F2F2"/>
<path opacity="0.59" d="M51.0801 189.115C52.9807 189.115 52.9807 186.145 51.0801 186.145C49.1794 186.264 49.1794 189.115 51.0801 189.115Z" fill="#F1F2F2"/>
<path opacity="0.59" d="M156.804 97.6461C158.705 97.6461 158.705 94.6763 156.804 94.6763C154.903 94.7951 154.903 97.6461 156.804 97.6461Z" fill="#F1F2F2"/>
<path opacity="0.59" d="M91.469 67.592C94.32 67.592 94.32 63.0779 91.469 63.0779C88.618 63.0779 88.618 67.592 91.469 67.592Z" fill="#F1F2F2"/>
<path opacity="0.59" d="M122.355 142.43C125.206 142.43 125.206 137.916 122.355 137.916C119.504 137.916 119.504 142.43 122.355 142.43Z" fill="#F1F2F2"/>
<path opacity="0.59" d="M194.817 384.764C197.668 384.764 197.668 380.25 194.817 380.25C191.966 380.25 191.966 384.764 194.817 384.764Z" fill="#F1F2F2"/>
<path opacity="0.59" d="M307.668 280.228C310.519 280.228 310.519 275.714 307.668 275.714C304.817 275.714 304.817 280.228 307.668 280.228Z" fill="#F1F2F2"/>
</g>
<path opacity="0.68" d="M91.469 300.541C71.6309 295.908 58.9203 276.426 62.7216 256.826C66.5229 236.75 86.4797 223.089 106.912 226.89C105.724 213.942 114.514 202.182 127.106 199.569C139.579 196.955 152.171 204.083 156.329 216.199C155.616 212.636 152.409 194.579 163.931 176.998C175.098 159.774 192.322 155.26 196.005 154.428C198.262 142.193 208.122 132.927 219.763 131.858C233.068 130.551 246.016 140.173 248.748 154.428C268.111 147.419 289.493 153.359 301.729 168.683C312.064 181.75 314.202 199.687 307.668 215.605C315.627 202.538 330.833 195.648 345.681 198.381C361.005 201.232 373.122 213.705 375.379 229.266C376.092 228.91 392.01 220.238 407.453 229.266C418.381 235.681 424.559 248.392 422.895 261.34C428.716 253.381 438.576 250.767 445.466 254.212C452.474 257.776 455.444 268.824 453.306 276.545C444.753 306.48 353.997 310.044 353.997 310.044C353.997 310.044 296.502 312.776 236.394 312.42C179.612 312.064 151.221 309.094 138.985 307.668C119.385 305.411 102.992 302.679 91.469 300.541Z" fill="url(#paint1_linear)"/>
<path opacity="0.79" d="M217.981 451.286C208.834 449.623 202.895 442.377 204.677 435.131C206.459 427.766 215.724 422.658 225.227 424.083C224.634 419.332 228.791 414.936 234.612 413.986C240.433 413.036 246.253 415.649 248.154 420.163C247.798 418.857 246.372 412.204 251.599 405.671C256.826 399.375 264.785 397.712 266.448 397.355C267.517 392.841 272.031 389.396 277.495 389.04C283.673 388.565 289.612 392.129 290.919 397.355C299.947 394.742 309.807 396.999 315.509 402.582C320.26 407.334 321.329 413.986 318.241 419.807C321.923 414.936 328.932 412.442 335.822 413.511C342.949 414.58 348.532 419.094 349.601 424.915C349.958 424.796 357.323 421.589 364.45 424.915C369.558 427.291 372.409 431.924 371.578 436.675C374.31 433.705 378.824 432.755 382.031 434.062C385.239 435.368 386.664 439.407 385.595 442.258C381.675 453.306 339.623 454.613 339.623 454.613C339.623 454.613 312.895 455.682 285.098 455.444C258.727 455.325 245.541 454.256 239.958 453.662C230.929 453.068 223.327 451.999 217.981 451.286Z" fill="url(#paint2_linear)"/>
<path opacity="0.79" d="M14.2549 418.381C5.108 416.718 -0.83154 409.472 0.950323 402.226C2.73219 394.861 11.9979 389.753 21.5011 391.178C20.9072 386.427 25.0649 382.031 30.8856 381.081C36.7064 380.131 42.5271 382.744 44.4278 387.258C44.0714 385.951 42.6459 379.299 47.8727 372.766C53.0995 366.47 61.0585 364.807 62.7216 364.45C63.7907 359.936 68.3047 356.491 73.7691 356.135C79.9462 355.66 85.8858 359.224 87.1925 364.45C96.2206 361.837 106.08 364.094 111.782 369.677C116.534 374.429 117.603 381.081 114.514 386.902C118.197 382.031 125.206 379.537 132.095 380.606C139.223 381.675 144.806 386.189 145.875 392.01C146.232 391.891 153.597 388.684 160.724 392.01C165.832 394.386 168.683 399.018 167.851 403.77C170.584 400.8 175.098 399.85 178.305 401.157C181.512 402.463 182.938 406.502 181.869 409.353C177.949 420.401 135.897 421.707 135.897 421.707C135.897 421.707 109.169 422.777 81.3717 422.539C55.0002 422.42 41.8144 421.351 36.2312 420.757C27.2031 420.163 19.6005 419.213 14.2549 418.381Z" fill="url(#paint3_linear)"/>
<path d="M940.824 450.93C936.547 445.822 932.271 440.833 928.113 435.725C928.232 436.913 929.301 450.217 922.055 459.602C915.521 468.036 907.325 466.61 906.137 466.373C903.642 466.61 888.674 467.917 877.983 452.712C873.826 446.772 871.687 440.239 870.618 435.725L851.018 451.049C833.912 428.716 811.223 403.176 782.594 379.537C762.875 363.381 744.225 351.265 727.594 342.118C721.654 357.204 705.618 392.485 673.901 416.956C643.728 440.239 615.455 441.308 603.101 440.833C599.419 439.526 592.291 436.2 585.995 427.172C583.026 423.014 581.125 418.738 579.937 415.293C569.959 430.617 553.684 452.118 529.807 469.699C501.297 490.844 439.645 501.891 432.042 493.576C421.826 482.172 422.183 464.829 422.301 462.928C412.561 474.807 402.701 486.805 392.96 498.684C379.062 483.122 360.411 465.185 336.772 449.386C315.39 435.012 295.552 426.103 279.396 420.52C265.379 435.368 222.258 478.371 170.702 486.924C147.301 490.844 120.692 499.397 108.456 478.371C98.834 462.096 102.517 436.913 104.774 425.628C85.8858 439.407 65.5725 456.632 44.9029 478.371C38.4882 485.142 32.3111 492.032 26.6091 498.803C19.6005 496.665 0.475163 483.716 0.475163 483.716L0 580.056C0 580.056 624.365 576.73 940.824 575.067" fill="url(#paint4_linear)"/>
<path d="M0 466.016C4.75163 461.978 9.50327 457.82 14.3737 453.781C14.2549 454.613 13.1858 463.878 20.3132 470.412C26.7279 476.233 34.6869 475.282 35.756 475.163C38.2507 475.401 52.7431 476.233 63.0779 465.66C67.1168 461.502 69.1363 456.988 70.2054 453.781C76.5013 457.345 82.916 460.908 89.2119 464.472C105.843 448.792 127.938 430.973 155.735 414.58C174.86 403.295 193.035 394.861 209.191 388.446C215.011 399.018 230.573 423.608 261.459 440.714C290.8 456.988 318.241 457.701 330.357 457.345C333.921 456.394 340.93 454.137 346.988 447.841C349.839 444.872 351.74 441.902 352.928 439.526C362.55 450.217 378.468 465.185 401.632 477.539C429.31 492.269 489.3 500.109 496.665 494.17C506.524 486.211 506.168 474.094 506.168 472.788L534.678 497.734C548.22 486.924 566.395 474.332 589.321 463.284C610.11 453.187 629.354 447.01 645.153 443.09C658.814 453.425 700.747 483.479 750.877 489.418C773.685 492.15 799.462 498.209 811.46 483.479C820.726 472.075 817.162 454.613 815.024 446.654C833.437 456.276 853.156 468.274 873.232 483.479C879.527 488.23 885.467 492.982 891.05 497.734C897.94 496.189 907.087 493.338 916.471 487.161C926.45 480.628 940.824 475.045 940.942 474.807V554.753L0 551.19" fill="url(#paint5_linear)"/>
<path d="M0.593954 496.427C23.4018 486.211 52.0304 476.232 85.5294 470.768C181.156 455.088 246.491 487.399 352.809 513.176C403.057 525.293 471.837 531.945 609.397 545.25C755.51 559.386 940.824 569.721 940.824 569.721V615.337C940.824 615.337 15.0864 655.963 0 659.764L0.593954 496.427Z" fill="url(#paint6_linear)"/>
<path d="M0.593964 538.004C83.6288 562.831 227.722 601.676 397.355 566.632C415.293 562.95 409.116 563.544 441.308 555.941C597.518 518.878 940.824 531.827 940.824 531.827C940.824 531.827 940.824 646.46 940.824 645.628C940.824 644.797 302.56 769.052 2.01945 592.648C0.1188 553.209 1.78187 588.846 0.831545 545.25C0.712754 542.993 0.712754 540.617 0.593964 538.004Z" fill="url(#paint7_linear)"/>
<path d="M940.824 594.786C802.313 611.417 646.103 622.702 474.926 622.82C300.66 622.939 141.717 611.654 1.1879 594.786V727.119H940.824V594.786Z" fill="url(#paint8_linear)"/>
<g filter="url(#filter0_b)">
<rect x="115" y="542" width="62" height="84" rx="10" fill="white" fill-opacity="0.1"/>
<rect x="115" y="542" width="62" height="84" rx="10" fill="url(#paint9_linear)"/>
<path d="M130.647 587.25C127.528 587.25 125 584.788 125 581.75C125 579.097 126.929 576.882 129.495 576.364C130.378 573.132 133.403 570.75 137 570.75C141.066 570.75 144.402 573.794 144.737 577.67C147.145 577.992 149 580.004 149 582.438C149 585.095 146.788 587.25 144.059 587.25H130.647Z" stroke="white" stroke-width="2" stroke-linecap="round" stroke-linejoin="round"/>
<path d="M137.529 597C133.371 597 130 593.717 130 589.667C130 586.129 132.572 583.177 135.994 582.486C137.17 578.176 141.204 575 146 575C151.421 575 155.87 579.059 156.316 584.227C159.527 584.656 162 587.338 162 590.583C162 594.127 159.05 597 155.412 597H137.529Z" stroke="white" stroke-width="2" stroke-linecap="round" stroke-linejoin="round"/>
<path d="M140.28 559H138.228L134.796 553.804V559H132.744V550.576H134.796L138.228 555.796V550.576H140.28V559ZM144.815 559.096C144.159 559.096 143.567 558.956 143.039 558.676C142.519 558.396 142.107 557.996 141.803 557.476C141.507 556.956 141.359 556.348 141.359 555.652C141.359 554.964 141.511 554.36 141.815 553.84C142.119 553.312 142.535 552.908 143.063 552.628C143.591 552.348 144.183 552.208 144.839 552.208C145.495 552.208 146.087 552.348 146.615 552.628C147.143 552.908 147.559 553.312 147.863 553.84C148.167 554.36 148.319 554.964 148.319 555.652C148.319 556.34 148.163 556.948 147.851 557.476C147.547 557.996 147.127 558.396 146.591 558.676C146.063 558.956 145.471 559.096 144.815 559.096ZM144.815 557.32C145.207 557.32 145.539 557.176 145.811 556.888C146.091 556.6 146.231 556.188 146.231 555.652C146.231 555.116 146.095 554.704 145.823 554.416C145.559 554.128 145.231 553.984 144.839 553.984C144.439 553.984 144.107 554.128 143.843 554.416C143.579 554.696 143.447 555.108 143.447 555.652C143.447 556.188 143.575 556.6 143.831 556.888C144.095 557.176 144.423 557.32 144.815 557.32ZM159.02 552.304L157.208 559H154.94L153.884 554.656L152.792 559H150.536L148.712 552.304H150.764L151.712 557.092L152.84 552.304H155.012L156.152 557.068L157.088 552.304H159.02Z" fill="white"/>
<path d="M134.624 617.808C134.987 617.52 135.152 617.387 135.12 617.408C136.165 616.544 136.987 615.835 137.584 615.28C138.192 614.725 138.704 614.144 139.12 613.536C139.536 612.928 139.744 612.336 139.744 611.76C139.744 611.323 139.643 610.981 139.44 610.736C139.237 610.491 138.933 610.368 138.528 610.368C138.123 610.368 137.803 610.523 137.568 610.832C137.344 611.131 137.232 611.557 137.232 612.112H134.592C134.613 611.205 134.805 610.448 135.168 609.84C135.541 609.232 136.027 608.784 136.624 608.496C137.232 608.208 137.904 608.064 138.64 608.064C139.909 608.064 140.864 608.389 141.504 609.04C142.155 609.691 142.48 610.539 142.48 611.584C142.48 612.725 142.091 613.787 141.312 614.768C140.533 615.739 139.541 616.688 138.336 617.616H142.656V619.84H134.624V617.808ZM145.781 613.728C144.778 613.195 144.277 612.357 144.277 611.216C144.277 610.64 144.426 610.117 144.725 609.648C145.023 609.168 145.477 608.789 146.085 608.512C146.693 608.224 147.439 608.08 148.325 608.08C149.21 608.08 149.951 608.224 150.549 608.512C151.157 608.789 151.61 609.168 151.909 609.648C152.207 610.117 152.357 610.64 152.357 611.216C152.357 611.792 152.218 612.293 151.941 612.72C151.674 613.147 151.311 613.483 150.853 613.728C151.429 614.005 151.871 614.389 152.181 614.88C152.49 615.36 152.645 615.925 152.645 616.576C152.645 617.333 152.453 617.989 152.069 618.544C151.685 619.088 151.162 619.504 150.501 619.792C149.85 620.08 149.125 620.224 148.325 620.224C147.525 620.224 146.794 620.08 146.133 619.792C145.482 619.504 144.965 619.088 144.581 618.544C144.197 617.989 144.005 617.333 144.005 616.576C144.005 615.915 144.159 615.344 144.469 614.864C144.778 614.373 145.215 613.995 145.781 613.728ZM149.701 611.632C149.701 611.195 149.573 610.859 149.317 610.624C149.071 610.379 148.741 610.256 148.325 610.256C147.909 610.256 147.573 610.379 147.317 610.624C147.071 610.869 146.949 611.211 146.949 611.648C146.949 612.064 147.077 612.395 147.333 612.64C147.589 612.875 147.919 612.992 148.325 612.992C148.73 612.992 149.061 612.869 149.317 612.624C149.573 612.379 149.701 612.048 149.701 611.632ZM148.325 614.912C147.823 614.912 147.418 615.051 147.109 615.328C146.799 615.595 146.645 615.968 146.645 616.448C146.645 616.896 146.794 617.264 147.093 617.552C147.402 617.84 147.813 617.984 148.325 617.984C148.837 617.984 149.237 617.84 149.525 617.552C149.823 617.264 149.973 616.896 149.973 616.448C149.973 615.979 149.818 615.605 149.509 615.328C149.21 615.051 148.815 614.912 148.325 614.912Z" fill="white"/>
<circle cx="156" cy="608" r="1.5" fill="white" stroke="white"/>
</g>
<g filter="url(#filter1_b)">
<rect x="208" y="542" width="62" height="84" rx="10" fill="white" fill-opacity="0.1"/>
<rect x="208" y="542" width="62" height="84" rx="10" fill="url(#paint10_linear)"/>
<path d="M223.647 587.25C220.528 587.25 218 584.788 218 581.75C218 579.097 219.929 576.882 222.495 576.364C223.378 573.132 226.403 570.75 230 570.75C234.066 570.75 237.402 573.794 237.737 577.67C240.145 577.992 242 580.004 242 582.438C242 585.095 239.788 587.25 237.059 587.25H223.647Z" stroke="white" stroke-width="2" stroke-linecap="round" stroke-linejoin="round"/>
<path d="M230.529 597C226.371 597 223 593.717 223 589.667C223 586.129 225.572 583.177 228.994 582.486C230.17 578.176 234.204 575 239 575C244.421 575 248.87 579.059 249.316 584.227C252.527 584.656 255 587.338 255 590.583C255 594.127 252.05 597 248.412 597H230.529Z" stroke="white" stroke-width="2" stroke-linecap="round" stroke-linejoin="round"/>
<path d="M233.28 559H231.228L227.796 553.804V559H225.744V550.576H227.796L231.228 555.796V550.576H233.28V559ZM237.815 559.096C237.159 559.096 236.567 558.956 236.039 558.676C235.519 558.396 235.107 557.996 234.803 557.476C234.507 556.956 234.359 556.348 234.359 555.652C234.359 554.964 234.511 554.36 234.815 553.84C235.119 553.312 235.535 552.908 236.063 552.628C236.591 552.348 237.183 552.208 237.839 552.208C238.495 552.208 239.087 552.348 239.615 552.628C240.143 552.908 240.559 553.312 240.863 553.84C241.167 554.36 241.319 554.964 241.319 555.652C241.319 556.34 241.163 556.948 240.851 557.476C240.547 557.996 240.127 558.396 239.591 558.676C239.063 558.956 238.471 559.096 237.815 559.096ZM237.815 557.32C238.207 557.32 238.539 557.176 238.811 556.888C239.091 556.6 239.231 556.188 239.231 555.652C239.231 555.116 239.095 554.704 238.823 554.416C238.559 554.128 238.231 553.984 237.839 553.984C237.439 553.984 237.107 554.128 236.843 554.416C236.579 554.696 236.447 555.108 236.447 555.652C236.447 556.188 236.575 556.6 236.831 556.888C237.095 557.176 237.423 557.32 237.815 557.32ZM252.02 552.304L250.208 559H247.94L246.884 554.656L245.792 559H243.536L241.712 552.304H243.764L244.712 557.092L245.84 552.304H248.012L249.152 557.068L250.088 552.304H252.02Z" fill="white"/>
<path d="M227.624 617.808C227.987 617.52 228.152 617.387 228.12 617.408C229.165 616.544 229.987 615.835 230.584 615.28C231.192 614.725 231.704 614.144 232.12 613.536C232.536 612.928 232.744 612.336 232.744 611.76C232.744 611.323 232.643 610.981 232.44 610.736C232.237 610.491 231.933 610.368 231.528 610.368C231.123 610.368 230.803 610.523 230.568 610.832C230.344 611.131 230.232 611.557 230.232 612.112H227.592C227.613 611.205 227.805 610.448 228.168 609.84C228.541 609.232 229.027 608.784 229.624 608.496C230.232 608.208 230.904 608.064 231.64 608.064C232.909 608.064 233.864 608.389 234.504 609.04C235.155 609.691 235.48 610.539 235.48 611.584C235.48 612.725 235.091 613.787 234.312 614.768C233.533 615.739 232.541 616.688 231.336 617.616H235.656V619.84H227.624V617.808ZM238.781 613.728C237.778 613.195 237.277 612.357 237.277 611.216C237.277 610.64 237.426 610.117 237.725 609.648C238.023 609.168 238.477 608.789 239.085 608.512C239.693 608.224 240.439 608.08 241.325 608.08C242.21 608.08 242.951 608.224 243.549 608.512C244.157 608.789 244.61 609.168 244.909 609.648C245.207 610.117 245.357 610.64 245.357 611.216C245.357 611.792 245.218 612.293 244.941 612.72C244.674 613.147 244.311 613.483 243.853 613.728C244.429 614.005 244.871 614.389 245.181 614.88C245.49 615.36 245.645 615.925 245.645 616.576C245.645 617.333 245.453 617.989 245.069 618.544C244.685 619.088 244.162 619.504 243.501 619.792C242.85 620.08 242.125 620.224 241.325 620.224C240.525 620.224 239.794 620.08 239.133 619.792C238.482 619.504 237.965 619.088 237.581 618.544C237.197 617.989 237.005 617.333 237.005 616.576C237.005 615.915 237.159 615.344 237.469 614.864C237.778 614.373 238.215 613.995 238.781 613.728ZM242.701 611.632C242.701 611.195 242.573 610.859 242.317 610.624C242.071 610.379 241.741 610.256 241.325 610.256C240.909 610.256 240.573 610.379 240.317 610.624C240.071 610.869 239.949 611.211 239.949 611.648C239.949 612.064 240.077 612.395 240.333 612.64C240.589 612.875 240.919 612.992 241.325 612.992C241.73 612.992 242.061 612.869 242.317 612.624C242.573 612.379 242.701 612.048 242.701 611.632ZM241.325 614.912C240.823 614.912 240.418 615.051 240.109 615.328C239.799 615.595 239.645 615.968 239.645 616.448C239.645 616.896 239.794 617.264 240.093 617.552C240.402 617.84 240.813 617.984 241.325 617.984C241.837 617.984 242.237 617.84 242.525 617.552C242.823 617.264 242.973 616.896 242.973 616.448C242.973 615.979 242.818 615.605 242.509 615.328C242.21 615.051 241.815 614.912 241.325 614.912Z" fill="white"/>
<circle cx="249" cy="608" r="1.5" fill="white" stroke="white"/>
</g>
<g filter="url(#filter2_b)">
<rect x="301" y="542" width="62" height="84" rx="10" fill="white" fill-opacity="0.1"/>
<rect x="301" y="542" width="62" height="84" rx="10" fill="url(#paint11_linear)"/>
<path d="M316.647 587.25C313.528 587.25 311 584.788 311 581.75C311 579.097 312.929 576.882 315.495 576.364C316.378 573.132 319.403 570.75 323 570.75C327.066 570.75 330.402 573.794 330.737 577.67C333.145 577.992 335 580.004 335 582.438C335 585.095 332.788 587.25 330.059 587.25H316.647Z" stroke="white" stroke-width="2" stroke-linecap="round" stroke-linejoin="round"/>
<path d="M323.529 597C319.371 597 316 593.717 316 589.667C316 586.129 318.572 583.177 321.994 582.486C323.17 578.176 327.204 575 332 575C337.421 575 341.87 579.059 342.316 584.227C345.527 584.656 348 587.338 348 590.583C348 594.127 345.05 597 341.412 597H323.529Z" stroke="white" stroke-width="2" stroke-linecap="round" stroke-linejoin="round"/>
<path d="M326.28 559H324.228L320.796 553.804V559H318.744V550.576H320.796L324.228 555.796V550.576H326.28V559ZM330.815 559.096C330.159 559.096 329.567 558.956 329.039 558.676C328.519 558.396 328.107 557.996 327.803 557.476C327.507 556.956 327.359 556.348 327.359 555.652C327.359 554.964 327.511 554.36 327.815 553.84C328.119 553.312 328.535 552.908 329.063 552.628C329.591 552.348 330.183 552.208 330.839 552.208C331.495 552.208 332.087 552.348 332.615 552.628C333.143 552.908 333.559 553.312 333.863 553.84C334.167 554.36 334.319 554.964 334.319 555.652C334.319 556.34 334.163 556.948 333.851 557.476C333.547 557.996 333.127 558.396 332.591 558.676C332.063 558.956 331.471 559.096 330.815 559.096ZM330.815 557.32C331.207 557.32 331.539 557.176 331.811 556.888C332.091 556.6 332.231 556.188 332.231 555.652C332.231 555.116 332.095 554.704 331.823 554.416C331.559 554.128 331.231 553.984 330.839 553.984C330.439 553.984 330.107 554.128 329.843 554.416C329.579 554.696 329.447 555.108 329.447 555.652C329.447 556.188 329.575 556.6 329.831 556.888C330.095 557.176 330.423 557.32 330.815 557.32ZM345.02 552.304L343.208 559H340.94L339.884 554.656L338.792 559H336.536L334.712 552.304H336.764L337.712 557.092L338.84 552.304H341.012L342.152 557.068L343.088 552.304H345.02Z" fill="white"/>
<path d="M320.624 617.808C320.987 617.52 321.152 617.387 321.12 617.408C322.165 616.544 322.987 615.835 323.584 615.28C324.192 614.725 324.704 614.144 325.12 613.536C325.536 612.928 325.744 612.336 325.744 611.76C325.744 611.323 325.643 610.981 325.44 610.736C325.237 610.491 324.933 610.368 324.528 610.368C324.123 610.368 323.803 610.523 323.568 610.832C323.344 611.131 323.232 611.557 323.232 612.112H320.592C320.613 611.205 320.805 610.448 321.168 609.84C321.541 609.232 322.027 608.784 322.624 608.496C323.232 608.208 323.904 608.064 324.64 608.064C325.909 608.064 326.864 608.389 327.504 609.04C328.155 609.691 328.48 610.539 328.48 611.584C328.48 612.725 328.091 613.787 327.312 614.768C326.533 615.739 325.541 616.688 324.336 617.616H328.656V619.84H320.624V617.808ZM331.781 613.728C330.778 613.195 330.277 612.357 330.277 611.216C330.277 610.64 330.426 610.117 330.725 609.648C331.023 609.168 331.477 608.789 332.085 608.512C332.693 608.224 333.439 608.08 334.325 608.08C335.21 608.08 335.951 608.224 336.549 608.512C337.157 608.789 337.61 609.168 337.909 609.648C338.207 610.117 338.357 610.64 338.357 611.216C338.357 611.792 338.218 612.293 337.941 612.72C337.674 613.147 337.311 613.483 336.853 613.728C337.429 614.005 337.871 614.389 338.181 614.88C338.49 615.36 338.645 615.925 338.645 616.576C338.645 617.333 338.453 617.989 338.069 618.544C337.685 619.088 337.162 619.504 336.501 619.792C335.85 620.08 335.125 620.224 334.325 620.224C333.525 620.224 332.794 620.08 332.133 619.792C331.482 619.504 330.965 619.088 330.581 618.544C330.197 617.989 330.005 617.333 330.005 616.576C330.005 615.915 330.159 615.344 330.469 614.864C330.778 614.373 331.215 613.995 331.781 613.728ZM335.701 611.632C335.701 611.195 335.573 610.859 335.317 610.624C335.071 610.379 334.741 610.256 334.325 610.256C333.909 610.256 333.573 610.379 333.317 610.624C333.071 610.869 332.949 611.211 332.949 611.648C332.949 612.064 333.077 612.395 333.333 612.64C333.589 612.875 333.919 612.992 334.325 612.992C334.73 612.992 335.061 612.869 335.317 612.624C335.573 612.379 335.701 612.048 335.701 611.632ZM334.325 614.912C333.823 614.912 333.418 615.051 333.109 615.328C332.799 615.595 332.645 615.968 332.645 616.448C332.645 616.896 332.794 617.264 333.093 617.552C333.402 617.84 333.813 617.984 334.325 617.984C334.837 617.984 335.237 617.84 335.525 617.552C335.823 617.264 335.973 616.896 335.973 616.448C335.973 615.979 335.818 615.605 335.509 615.328C335.21 615.051 334.815 614.912 334.325 614.912Z" fill="white"/>
<circle cx="342" cy="608" r="1.5" fill="white" stroke="white"/>
</g>
<g filter="url(#filter3_b)">
<rect x="22" y="541" width="62" height="85" rx="10" fill="white" fill-opacity="0.1"/>
<rect x="22" y="541" width="62" height="85" rx="10" fill="url(#paint12_linear)"/>
<path d="M37.6471 585.985C34.5283 585.985 32 583.841 32 581.196C32 578.886 33.9289 576.958 36.4953 576.507C37.3776 573.692 40.4032 571.619 44 571.619C48.0661 571.619 51.4023 574.269 51.7371 577.644C54.1451 577.924 56 579.676 56 581.795C56 584.109 53.7878 585.985 51.0588 585.985H37.6471Z" stroke="white" stroke-width="2" stroke-linecap="round" stroke-linejoin="round"/>
<path d="M44.5294 594.474C40.371 594.474 37 591.616 37 588.089C37 585.009 39.5718 582.438 42.9938 581.837C44.1702 578.084 48.2043 575.319 53 575.319C58.4215 575.319 62.8697 578.853 63.3161 583.353C66.5268 583.726 69 586.062 69 588.887C69 591.973 66.0503 594.474 62.4118 594.474H44.5294Z" stroke="white" stroke-width="2" stroke-linecap="round" stroke-linejoin="round"/>
<path d="M47.28 559H45.228L41.796 553.804V559H39.744V550.576H41.796L45.228 555.796V550.576H47.28V559ZM51.8154 559.096C51.1594 559.096 50.5674 558.956 50.0394 558.676C49.5194 558.396 49.1074 557.996 48.8034 557.476C48.5074 556.956 48.3594 556.348 48.3594 555.652C48.3594 554.964 48.5114 554.36 48.8154 553.84C49.1194 553.312 49.5354 552.908 50.0634 552.628C50.5914 552.348 51.1834 552.208 51.8394 552.208C52.4954 552.208 53.0874 552.348 53.6154 552.628C54.1434 552.908 54.5594 553.312 54.8634 553.84C55.1674 554.36 55.3194 554.964 55.3194 555.652C55.3194 556.34 55.1634 556.948 54.8514 557.476C54.5474 557.996 54.1274 558.396 53.5914 558.676C53.0634 558.956 52.4714 559.096 51.8154 559.096ZM51.8154 557.32C52.2074 557.32 52.5394 557.176 52.8114 556.888C53.0914 556.6 53.2314 556.188 53.2314 555.652C53.2314 555.116 53.0954 554.704 52.8234 554.416C52.5594 554.128 52.2314 553.984 51.8394 553.984C51.4394 553.984 51.1074 554.128 50.8434 554.416C50.5794 554.696 50.4474 555.108 50.4474 555.652C50.4474 556.188 50.5754 556.6 50.8314 556.888C51.0954 557.176 51.4234 557.32 51.8154 557.32ZM66.0201 552.304L64.2081 559H61.9401L60.8841 554.656L59.7921 559H57.5361L55.7121 552.304H57.7641L58.7121 557.092L59.8401 552.304H62.0121L63.1521 557.068L64.0881 552.304H66.0201Z" fill="white"/>
<path d="M41.624 617.808C41.9867 617.52 42.152 617.387 42.12 617.408C43.1653 616.544 43.9867 615.835 44.584 615.28C45.192 614.725 45.704 614.144 46.12 613.536C46.536 612.928 46.744 612.336 46.744 611.76C46.744 611.323 46.6427 610.981 46.44 610.736C46.2373 610.491 45.9333 610.368 45.528 610.368C45.1227 610.368 44.8027 610.523 44.568 610.832C44.344 611.131 44.232 611.557 44.232 612.112H41.592C41.6133 611.205 41.8053 610.448 42.168 609.84C42.5413 609.232 43.0267 608.784 43.624 608.496C44.232 608.208 44.904 608.064 45.64 608.064C46.9093 608.064 47.864 608.389 48.504 609.04C49.1547 609.691 49.48 610.539 49.48 611.584C49.48 612.725 49.0907 613.787 48.312 614.768C47.5333 615.739 46.5413 616.688 45.336 617.616H49.656V619.84H41.624V617.808ZM52.7806 613.728C51.778 613.195 51.2766 612.357 51.2766 611.216C51.2766 610.64 51.426 610.117 51.7246 609.648C52.0233 609.168 52.4766 608.789 53.0846 608.512C53.6926 608.224 54.4393 608.08 55.3246 608.08C56.21 608.08 56.9513 608.224 57.5486 608.512C58.1566 608.789 58.61 609.168 58.9086 609.648C59.2073 610.117 59.3566 610.64 59.3566 611.216C59.3566 611.792 59.218 612.293 58.9406 612.72C58.674 613.147 58.3113 613.483 57.8526 613.728C58.4286 614.005 58.8713 614.389 59.1806 614.88C59.49 615.36 59.6446 615.925 59.6446 616.576C59.6446 617.333 59.4526 617.989 59.0686 618.544C58.6846 619.088 58.162 619.504 57.5006 619.792C56.85 620.08 56.1246 620.224 55.3246 620.224C54.5246 620.224 53.794 620.08 53.1326 619.792C52.482 619.504 51.9646 619.088 51.5806 618.544C51.1966 617.989 51.0046 617.333 51.0046 616.576C51.0046 615.915 51.1593 615.344 51.4686 614.864C51.778 614.373 52.2153 613.995 52.7806 613.728ZM56.7006 611.632C56.7006 611.195 56.5726 610.859 56.3166 610.624C56.0713 610.379 55.7406 610.256 55.3246 610.256C54.9086 610.256 54.5726 610.379 54.3166 610.624C54.0713 610.869 53.9486 611.211 53.9486 611.648C53.9486 612.064 54.0766 612.395 54.3326 612.64C54.5886 612.875 54.9193 612.992 55.3246 612.992C55.73 612.992 56.0606 612.869 56.3166 612.624C56.5726 612.379 56.7006 612.048 56.7006 611.632ZM55.3246 614.912C54.8233 614.912 54.418 615.051 54.1086 615.328C53.7993 615.595 53.6446 615.968 53.6446 616.448C53.6446 616.896 53.794 617.264 54.0926 617.552C54.402 617.84 54.8126 617.984 55.3246 617.984C55.8366 617.984 56.2366 617.84 56.5246 617.552C56.8233 617.264 56.9726 616.896 56.9726 616.448C56.9726 615.979 56.818 615.605 56.5086 615.328C56.21 615.051 55.8153 614.912 55.3246 614.912Z" fill="white"/>
<circle cx="63" cy="608" r="1.5" fill="white" stroke="white"/>
</g>
</g>
<defs>
<filter id="filter0_b" x="111" y="538" width="70" height="92" filterUnits="userSpaceOnUse" color-interpolation-filters="sRGB">
<feFlood flood-opacity="0" result="BackgroundImageFix"/>
<feGaussianBlur in="BackgroundImage" stdDeviation="2"/>
<feComposite in2="SourceAlpha" operator="in" result="effect1_backgroundBlur"/>
<feBlend mode="normal" in="SourceGraphic" in2="effect1_backgroundBlur" result="shape"/>
</filter>
<filter id="filter1_b" x="204" y="538" width="70" height="92" filterUnits="userSpaceOnUse" color-interpolation-filters="sRGB">
<feFlood flood-opacity="0" result="BackgroundImageFix"/>
<feGaussianBlur in="BackgroundImage" stdDeviation="2"/>
<feComposite in2="SourceAlpha" operator="in" result="effect1_backgroundBlur"/>
<feBlend mode="normal" in="SourceGraphic" in2="effect1_backgroundBlur" result="shape"/>
</filter>
<filter id="filter2_b" x="297" y="538" width="70" height="92" filterUnits="userSpaceOnUse" color-interpolation-filters="sRGB">
<feFlood flood-opacity="0" result="BackgroundImageFix"/>
<feGaussianBlur in="BackgroundImage" stdDeviation="2"/>
<feComposite in2="SourceAlpha" operator="in" result="effect1_backgroundBlur"/>
<feBlend mode="normal" in="SourceGraphic" in2="effect1_backgroundBlur" result="shape"/>
</filter>
<filter id="filter3_b" x="18" y="537" width="70" height="93" filterUnits="userSpaceOnUse" color-interpolation-filters="sRGB">
<feFlood flood-opacity="0" result="BackgroundImageFix"/>
<feGaussianBlur in="BackgroundImage" stdDeviation="2"/>
<feComposite in2="SourceAlpha" operator="in" result="effect1_backgroundBlur"/>
<feBlend mode="normal" in="SourceGraphic" in2="effect1_backgroundBlur" result="shape"/>
</filter>
<linearGradient id="paint0_linear" x1="470.412" y1="-0.0324453" x2="470.412" y2="541.651" gradientUnits="userSpaceOnUse">
<stop offset="0.00623" stop-color="#53093B"/>
<stop offset="0.3144" stop-color="#D41E44"/>
<stop offset="0.8881" stop-color="#FAA61A"/>
<stop offset="0.9927" stop-color="#FFD800"/>
</linearGradient>
<linearGradient id="paint1_linear" x1="258.014" y1="131.715" x2="258.014" y2="312.42" gradientUnits="userSpaceOnUse">
<stop stop-color="#FFF45F"/>
<stop offset="0.9949" stop-color="#EA9A97"/>
</linearGradient>
<linearGradient id="paint2_linear" x1="295.16" y1="389.088" x2="295.16" y2="455.646" gradientUnits="userSpaceOnUse">
<stop stop-color="#FFF45F"/>
<stop offset="0.9949" stop-color="#EA9A97"/>
</linearGradient>
<linearGradient id="paint3_linear" x1="91.469" y1="356.254" x2="91.469" y2="422.812" gradientUnits="userSpaceOnUse">
<stop stop-color="#FFF45F"/>
<stop offset="0.9949" stop-color="#EA9A97"/>
</linearGradient>
<linearGradient id="paint4_linear" x1="470.364" y1="342.082" x2="470.364" y2="580.115" gradientUnits="userSpaceOnUse">
<stop offset="0.0051082" stop-color="#F5887B"/>
<stop offset="1" stop-color="#484A9F"/>
</linearGradient>
<linearGradient id="paint5_linear" x1="470.412" y1="388.41" x2="470.412" y2="554.706" gradientUnits="userSpaceOnUse">
<stop stop-color="#A65F67"/>
<stop offset="1" stop-color="#4A0E37"/>
</linearGradient>
<linearGradient id="paint6_linear" x1="470.412" y1="466.646" x2="470.412" y2="659.705" gradientUnits="userSpaceOnUse">
<stop stop-color="#76234F"/>
<stop offset="0.07601" stop-color="#691B45"/>
<stop offset="0.2073" stop-color="#520933"/>
<stop offset="0.3028" stop-color="#400025"/>
<stop offset="0.3518" stop-color="#38001D"/>
<stop offset="0.3902" stop-color="#33001D"/>
<stop offset="0.4774" stop-color="#29001E"/>
<stop offset="0.5665" stop-color="#20001F"/>
<stop offset="0.6572" stop-color="#190020"/>
<stop offset="0.7502" stop-color="#150020"/>
<stop offset="0.8493" stop-color="#130020"/>
</linearGradient>
<linearGradient id="paint7_linear" x1="470.721" y1="529.641" x2="470.721" y2="687.3" gradientUnits="userSpaceOnUse">
<stop stop-color="#76234F"/>
<stop offset="0.07601" stop-color="#691B45"/>
<stop offset="0.2073" stop-color="#520933"/>
<stop offset="0.3028" stop-color="#400025"/>
<stop offset="0.3518" stop-color="#38001D"/>
<stop offset="0.3902" stop-color="#33001D"/>
<stop offset="0.4774" stop-color="#29001E"/>
<stop offset="0.5665" stop-color="#20001F"/>
<stop offset="0.6572" stop-color="#190020"/>
<stop offset="0.7502" stop-color="#150020"/>
<stop offset="0.8493" stop-color="#130020"/>
</linearGradient>
<linearGradient id="paint8_linear" x1="471.006" y1="594.762" x2="471.006" y2="727.036" gradientUnits="userSpaceOnUse">
<stop stop-color="#76234F"/>
<stop offset="0.07601" stop-color="#691B45"/>
<stop offset="0.2073" stop-color="#520933"/>
<stop offset="0.3028" stop-color="#400025"/>
<stop offset="0.3518" stop-color="#38001D"/>
<stop offset="0.3902" stop-color="#33001D"/>
<stop offset="0.4774" stop-color="#29001E"/>
<stop offset="0.5665" stop-color="#20001F"/>
<stop offset="0.6572" stop-color="#190020"/>
<stop offset="0.7502" stop-color="#150020"/>
<stop offset="0.8493" stop-color="#130020"/>
</linearGradient>
<linearGradient id="paint9_linear" x1="115" y1="546" x2="172.5" y2="626" gradientUnits="userSpaceOnUse">
<stop stop-color="white" stop-opacity="0.4"/>
<stop offset="1" stop-color="white" stop-opacity="0"/>
</linearGradient>
<linearGradient id="paint10_linear" x1="208" y1="546" x2="265.5" y2="626" gradientUnits="userSpaceOnUse">
<stop stop-color="white" stop-opacity="0.4"/>
<stop offset="1" stop-color="white" stop-opacity="0"/>
</linearGradient>
<linearGradient id="paint11_linear" x1="301" y1="546" x2="358.5" y2="626" gradientUnits="userSpaceOnUse">
<stop stop-color="white" stop-opacity="0.4"/>
<stop offset="1" stop-color="white" stop-opacity="0"/>
</linearGradient>
<linearGradient id="paint12_linear" x1="22" y1="545.048" x2="80.4007" y2="625.345" gradientUnits="userSpaceOnUse">
<stop stop-color="white" stop-opacity="0.4"/>
<stop offset="1" stop-color="white" stop-opacity="0"/>
</linearGradient>
<clipPath id="clip0">
<rect width="940.824" height="727" fill="white"/>
</clipPath>
</defs>
</svg>
